<svg width="18" height="18" viewBox="0 0 18 18" fill="none" xmlns="http://www.w3.org/2000/svg">
<circle cx="9" cy="9" r="8.6" stroke="white" stroke-width="0.8"/>
<path d="M0.899902 6.2998H17.0999" stroke="white" stroke-width="0.8"/>
<path d="M0.899902 11.7002H17.0999" stroke="white" stroke-width="0.8"/>
<path d="M13.1 9C13.1 11.4366 12.6053 13.6228 11.8242 15.1851C11.0311 16.7712 10.0095 17.6 9 17.6C7.99049 17.6 6.96887 16.7712 6.17579 15.1851C5.39467 13.6228 4.9 11.4366 4.9 9C4.9 6.56335 5.39467 4.37716 6.17579 2.81492C6.96887 1.22877 7.99049 0.4 9 0.4C10.0095 0.4 11.0311 1.22877 11.8242 2.81492C12.6053 4.37716 13.1 6.56335 13.1 9Z" stroke="white" stroke-width="0.8"/>
</svg>
